<?xml version="1.0" standalone="no"?>
<!DOCTYPE svg PUBLIC "-//W3C//DTD SVG 20010904//EN"
 "http://www.w3.org/TR/2001/REC-SVG-20010904/DTD/svg10.dtd">
<svg version="1.0" xmlns="http://www.w3.org/2000/svg"
 width="957.000000pt" height="957.000000pt" viewBox="0 0 957.000000 957.000000"
 preserveAspectRatio="xMidYMid meet">
<metadata>
Created by potrace 1.11, written by Peter Selinger 2001-2013
</metadata>
<g transform="translate(0.000000,957.000000) scale(0.100000,-0.100000)"
fill="#000000" stroke="none">
<path d="M4620 9560 c0 -5 -9 -10 -19 -10 -50 0 -199 -60 -435 -175 -142 -69
-269 -128 -283 -131 -14 -4 -125 -55 -247 -114 -122 -59 -252 -121 -291 -138
-38 -17 -223 -103 -410 -192 -504 -240 -687 -327 -925 -438 -118 -55 -312
-147 -430 -205 -189 -91 -405 -193 -495 -232 -148 -65 -318 -153 -380 -196
-153 -106 -288 -277 -354 -449 -66 -172 -62 12 -59 -2510 l3 -2285 23 -80 c25
-89 95 -241 143 -311 48 -71 154 -178 228 -233 73 -54 207 -123 466 -241 94
-43 321 -151 505 -240 184 -89 385 -184 445 -212 138 -64 420 -197 775 -368
151 -73 352 -167 445 -210 94 -43 255 -119 359 -169 103 -50 192 -91 198 -91
5 0 134 -60 286 -134 255 -123 384 -176 433 -176 10 0 19 -4 19 -10 0 -6 62
-10 165 -10 103 0 165 4 165 10 0 6 12 10 26 10 53 0 205 62 457 184 142 69
264 126 270 126 7 0 119 52 249 115 131 63 268 127 305 144 80 34 428 199 733
348 118 58 264 127 325 155 149 68 586 275 714 338 117 58 345 165 501 235
269 121 374 188 487 308 109 116 177 232 229 387 l29 85 3 2315 2 2314 -21 86
c-23 93 -89 242 -140 316 -55 80 -178 202 -257 255 -77 52 -168 97 -457 229
-93 43 -358 168 -588 279 -231 110 -421 201 -423 201 -6 0 -286 132 -499 235
-285 138 -578 276 -665 315 -47 21 -184 85 -304 144 -120 58 -223 106 -228
106 -6 0 -130 58 -278 130 -263 127 -393 180 -444 180 -14 0 -26 5 -26 10 0 6
-62 10 -165 10 -103 0 -165 -4 -165 -10z"/>
</g>
</svg>
